HIERARCHY
ROOT Hips
{
	OFFSET 0.00000 0.00000 0.00000
	CHANNELS 6 Xposition Yposition Zposition Zrotation Yrotation Xrotation 
	JOINT LHipJoint
	{
		OFFSET 0 0 0
		CHANNELS 3 Zrotation Yrotation Xrotation
		JOINT LeftUpLeg
		{
			OFFSET 1.76014 -1.80163 0.38499
			CHANNELS 3 Zrotation Yrotation Xrotation
			JOINT LeftLeg
			{
				OFFSET 2.46817 -6.78126 0.00000
				CHANNELS 3 Zrotation Yrotation Xrotation
				JOINT LeftFoot
				{
					OFFSET 2.79348 -7.67503 0.00000
					CHANNELS 3 Zrotation Yrotation Xrotation
					JOINT LeftToeBase
					{
						OFFSET 0.09421 -0.25885 1.91403
						CHANNELS 3 Zrotation Yrotation Xrotation
						End Site
						{
							OFFSET 0.00000 -0.00000 0.97975
						}
					}
				}
			}
		}
	}
	JOINT RHipJoint
	{
		OFFSET 0 0 0
		CHANNELS 3 Zrotation Yrotation Xrotation
		JOINT RightUpLeg
		{
			OFFSET -1.77926 -1.80163 0.38499
			CHANNELS 3 Zrotation Yrotation Xrotation
			JOINT RightLeg
			{
				OFFSET -2.51996 -6.92353 0.00000
				CHANNELS 3 Zrotation Yrotation Xrotation
				JOINT RightFoot
				{
					OFFSET -2.76109 -7.58603 0.00000
					CHANNELS 3 Zrotation Yrotation Xrotation
					JOINT RightToeBase
					{
						OFFSET -0.08067 -0.22163 1.86812
						CHANNELS 3 Zrotation Yrotation Xrotation
						End Site
						{
							OFFSET -0.00000 -0.00000 0.95558
						}
					}
				}
			}
		}
	}
	JOINT LowerBack
	{
		OFFSET 0 0 0
		CHANNELS 3 Zrotation Yrotation Xrotation
		JOINT Spine
		{
			OFFSET 0.05537 1.92033 -0.03713
			CHANNELS 3 Zrotation Yrotation Xrotation
			JOINT Spine1
			{
				OFFSET 0.04452 1.90073 0.10860
				CHANNELS 3 Zrotation Yrotation Xrotation
				JOINT Neck
				{
					OFFSET 0 0 0
					CHANNELS 3 Zrotation Yrotation Xrotation
					JOINT Neck1
					{
						OFFSET 0.00903 1.74649 0.02074
						CHANNELS 3 Zrotation Yrotation Xrotation
						JOINT Head
						{
							OFFSET -0.08608 1.67844 -0.12081
							CHANNELS 3 Zrotation Yrotation Xrotation
							End Site
							{
								OFFSET -0.03521 1.83380 -0.05059
							}
						}
					}
				}
				JOINT LeftShoulder
				{
					OFFSET 0 0 0
					CHANNELS 3 Zrotation Yrotation Xrotation
					JOINT LeftArm
					{
						OFFSET 3.28197 0.84325 -0.19106
						CHANNELS 3 Zrotation Yrotation Xrotation
						JOINT LeftForeArm
						{
							OFFSET 5.24318 -0.00000 -0.00000
							CHANNELS 3 Zrotation Yrotation Xrotation
							JOINT LeftHand
							{
								OFFSET 2.98999 -0.00000 0.00000
								CHANNELS 3 Zrotation Yrotation Xrotation
								JOINT LeftFingerBase
								{
									OFFSET 0 0 0
									CHANNELS 3 Zrotation Yrotation Xrotation
									JOINT LeftHandIndex1
									{
										OFFSET 0.72674 -0.00000 0.00000
										CHANNELS 3 Zrotation Yrotation Xrotation
										End Site
										{
											OFFSET 0.58592 -0.00000 0.00000
										}
									}
								}
								JOINT LThumb
								{
									OFFSET 0 0 0
									CHANNELS 3 Zrotation Yrotation Xrotation
									End Site
									{
										OFFSET 0.59487 -0.00000 0.59487
									}
								}
							}
						}
					}
				}
				JOINT RightShoulder
				{
					OFFSET 0 0 0
					CHANNELS 3 Zrotation Yrotation Xrotation
					JOINT RightArm
					{
						OFFSET -3.30963 0.78377 0.14264
						CHANNELS 3 Zrotation Yrotation Xrotation
						JOINT RightForeArm
						{
							OFFSET -5.37045 -0.00000 0.00000
							CHANNELS 3 Zrotation Yrotation Xrotation
							JOINT RightHand
							{
								OFFSET -2.92792 -0.00000 0.00000
								CHANNELS 3 Zrotation Yrotation Xrotation
								JOINT RightFingerBase
								{
									OFFSET 0 0 0
									CHANNELS 3 Zrotation Yrotation Xrotation
									JOINT RightHandIndex1
									{
										OFFSET -0.78450 -0.00000 0.00000
										CHANNELS 3 Zrotation Yrotation Xrotation
										End Site
										{
											OFFSET -0.63248 -0.00000 0.00000
										}
									}
								}
								JOINT RThumb
								{
									OFFSET 0 0 0
									CHANNELS 3 Zrotation Yrotation Xrotation
									End Site
									{
										OFFSET -0.64214 -0.00000 0.64214
									}
								}
							}
						}
					}
				}
			}
		}
	}
}
MOTION
Frames: 14
Frame Time: .0083333
0.0811 18.1917 0.8745 -1.6724 8.3342 5.9609 0.0000 0.0000 0.0000 -15.8793 -21.6151 -3.4648 1.0227 6.4335 18.0474 -0.7006 15.1892 -10.0364 1.7827 -8.3980 -23.9296 0.0000 0.0000 0.0000 22.8675 16.0740 -2.2812 -0.6046 -4.9772 13.8434 -0.2101 -21.4849 -31.7208 -2.0670 -9.0042 25.8085 0.6007 1.7713 -4.5082 -0.0323 2.3304 0.2166 -0.2101 1.1700 2.7740 -0.5010 0.0818 -2.6035 -4.6240 1.3726 25.1546 -1.3498 0.2300 8.2296 -0.0000 0.0000 0.0000 -80.6952 14.9979 44.3053 50.8793 -53.3440 -26.8779 -0.0000 0.0000 -4.8949 2.2497 24.8999 0.9476 -7.1250 0.0000 -0.0000 -27.8566 52.6497 -5.5948 -0.0000 0.0000 0.0000 85.4225 -7.9500 42.9609 -17.6423 27.6967 -4.3817 0.0000 0.0000 2.5447 6.8876 4.2346 0.5110 7.1250 -0.0000 -0.0000 24.6327 -25.4718 12.8068
0.0802 18.1907 0.8735 -1.7504 8.2939 5.9600 0.0000 0.0000 0.0000 -15.7917 -21.6284 -3.4934 1.0282 6.4502 18.0964 -0.7027 15.2218 -10.1011 1.7584 -8.3437 -23.7629 0.0000 0.0000 0.0000 22.9442 16.0460 -2.3108 -0.6029 -4.9703 13.8238 -0.1917 -21.5136 -31.6395 -2.0372 -8.9432 25.6178 0.6412 1.7870 -4.4389 -0.0753 2.3510 0.1774 -0.2787 1.1810 2.6984 -0.3225 0.0857 -2.6050 -4.6599 1.3665 25.1632 -1.3931 0.2398 8.2329 -0.0000 -0.0000 0.0000 -80.6640 15.0076 44.2508 50.8093 -53.3167 -26.8218 -0.0000 0.0000 -4.8947 2.2497 24.9888 0.9508 -7.1250 0.0000 -0.0000 -27.9127 52.7280 -5.6635 -0.0000 -0.0000 0.0000 85.4296 -7.9571 43.2517 -17.6884 27.7564 -4.4032 0.0000 0.0000 2.3300 6.8921 4.2298 0.5108 7.1250 -0.0000 -0.0000 24.6368 -25.4761 12.8066
0.0791 18.1906 0.8724 -1.7656 8.1907 6.0107 0.0000 0.0000 0.0000 -15.7605 -21.5939 -3.5746 1.0325 6.4633 18.1348 -0.7041 15.2442 -10.1446 1.7396 -8.3012 -23.6326 0.0000 0.0000 0.0000 22.9261 16.0351 -2.3982 -0.6017 -4.9655 13.8103 -0.1651 -21.5201 -31.4746 -1.9986 -8.8631 25.3681 0.6060 1.8352 -4.3945 -0.1463 2.4193 0.1046 -0.3304 1.2148 2.6010 -0.1593 0.0942 -2.6588 -4.6305 1.3607 25.2827 -1.4130 0.2521 8.2832 -0.0000 0.0000 0.0000 -80.6016 15.0185 44.2454 50.6434 -53.2517 -26.6888 -0.0000 0.0000 -4.7928 2.1979 24.9057 0.9260 -7.1250 0.0000 -0.0000 -27.9085 52.6459 -5.6038 -0.0000 0.0000 0.0000 85.4868 -8.0131 43.3372 -17.7308 27.8111 -4.4229 0.0000 0.0000 2.2545 6.9552 4.2091 0.5130 7.1250 -0.0000 -0.0000 24.6843 -25.4929 12.8256
0.0770 18.1910 0.8718 -1.7321 8.1696 6.0282 0.0000 0.0000 0.0000 -15.7824 -21.5671 -3.6222 1.0354 6.4720 18.1602 -0.7024 15.2374 -10.1778 1.7408 -8.3040 -23.6413 0.0000 0.0000 0.0000 22.8760 15.9698 -2.4473 -0.6013 -4.9638 13.8055 -0.1372 -21.5354 -31.3119 -1.9709 -8.8053 25.1880 0.4959 1.8649 -4.3365 -0.2040 2.4664 0.0540 -0.3280 1.2371 2.5148 -0.1302 0.0776 -2.7081 -4.5173 1.3152 25.4030 -1.3848 0.2415 8.3315 -0.0000 0.0000 0.0000 -80.5523 14.9846 44.3307 50.4447 -53.1733 -26.5297 -0.0000 0.0000 -4.6945 2.1597 24.9587 0.9117 -7.1250 0.0000 -0.0000 -27.9776 52.6860 -5.6484 -0.0000 0.0000 0.0000 85.5359 -8.0640 43.3060 -17.7828 27.8781 -4.4472 0.0000 0.0000 2.2789 7.1268 4.1990 0.5245 7.1250 -0.0000 -0.0000 24.8039 -25.4963 12.8987
0.0756 18.1914 0.8727 -1.6994 8.2322 6.0309 0.0000 0.0000 0.0000 -15.8114 -21.5915 -3.6231 1.0353 6.4717 18.1594 -0.6987 15.2152 -10.2205 1.7155 -8.2464 -23.4652 0.0000 0.0000 0.0000 22.8507 15.9190 -2.4616 -0.6029 -4.9703 13.8238 -0.1186 -21.5899 -31.2623 -1.9595 -8.7812 25.1132 0.3889 1.8597 -4.2770 -0.2338 2.4658 0.0077 -0.3020 1.2356 2.4306 -0.2570 0.0604 -2.6528 -4.3155 1.2586 25.4121 -1.2995 0.2222 8.3218 0.0000 0.0000 0.0000 -80.5797 14.9901 44.3511 50.2771 -53.1067 -26.3956 -0.0000 0.0000 -4.5969 2.1944 24.9856 0.9273 -7.1250 0.0000 -0.0000 -27.9622 52.7156 -5.6661 0.0000 0.0000 0.0000 85.4839 -8.1160 43.4708 -17.8507 27.9656 -4.4790 0.0000 0.0000 2.1024 7.2076 4.1539 0.5248 7.1250 -0.0000 -0.0000 24.8685 -25.5346 12.9144
0.0751 18.1913 0.8740 -1.7059 8.2568 6.0123 0.0000 0.0000 0.0000 -15.8099 -21.5671 -3.6065 1.0357 6.4727 18.1624 -0.6940 15.1729 -10.2203 1.7340 -8.2886 -23.5942 0.0000 0.0000 0.0000 22.8662 15.8772 -2.4458 -0.6023 -4.9678 13.8168 -0.1157 -21.5832 -31.2337 -1.9647 -8.7922 25.1473 0.3553 1.8543 -4.2041 -0.2777 2.4616 -0.0270 -0.3319 1.2333 2.3545 -0.3057 0.0623 -2.5598 -4.1822 1.2314 25.3500 -1.2478 0.2190 8.2821 -0.0000 0.0000 0.0000 -80.5747 15.0257 44.3232 50.1701 -53.0639 -26.3101 -0.0000 0.0000 -4.5207 2.2355 24.8266 0.9390 -7.1250 0.0000 -0.0000 -27.8238 52.5826 -5.5395 -0.0000 0.0000 0.0000 85.4631 -8.1547 43.6991 -17.9266 28.0631 -4.5147 0.0000 0.0000 1.8960 7.1842 4.0963 0.5159 7.1250 -0.0000 -0.0000 24.8645 -25.5881 12.8770
0.0742 18.1907 0.8756 -1.7148 8.3022 6.0217 0.0000 0.0000 0.0000 -15.7940 -21.5931 -3.6223 1.0377 6.4788 18.1801 -0.6947 15.1703 -10.1806 1.7665 -8.3617 -23.8181 0.0000 0.0000 0.0000 22.8779 15.8145 -2.4536 -0.5996 -4.9571 13.7862 -0.1386 -21.5075 -31.2841 -2.0096 -8.8861 25.4396 0.2900 1.8240 -4.2010 -0.3089 2.4251 -0.0522 -0.3302 1.2145 2.3251 -0.2918 0.0859 -2.5061 -4.1010 1.2429 25.3486 -1.2220 0.2336 8.2716 -0.0000 -0.0000 0.0000 -80.6217 15.0347 44.1801 49.9956 -52.9937 -26.1706 -0.0000 0.0000 -4.3437 2.0323 24.7260 0.8504 -7.1250 0.0000 -0.0000 -27.9495 52.4591 -5.4794 -0.0000 -0.0000 0.0000 85.4556 -8.1823 43.9166 -17.9923 28.1473 -4.5456 0.0000 0.0000 1.8077 7.2606 4.0598 0.5168 7.1250 -0.0000 -0.0000 24.9245 -25.6188 12.8945
0.0721 18.1907 0.8757 -1.7472 8.3577 6.0190 0.0000 0.0000 0.0000 -15.7404 -21.6270 -3.6478 1.0401 6.4862 18.2019 -0.6940 15.1504 -10.1241 1.7909 -8.4163 -23.9858 0.0000 0.0000 0.0000 22.9267 15.7988 -2.4442 -0.5980 -4.9503 13.7668 -0.1615 -21.4682 -31.3826 -2.0218 -8.9114 25.5184 0.2369 1.7904 -4.1652 -0.3259 2.3832 -0.0794 -0.3224 1.1931 2.2752 -0.2518 0.1230 -2.5550 -4.0071 1.2737 25.4506 -1.1959 0.2583 8.3156 0.0000 0.0000 0.0000 -80.6921 15.0402 44.0496 49.8445 -52.9326 -26.0500 -0.0000 0.0000 -4.2680 1.9523 24.5990 0.8129 -7.1250 0.0000 -0.0000 -27.9446 52.3335 -5.3882 0.0000 0.0000 0.0000 85.4445 -8.2187 44.0808 -18.0463 28.2164 -4.5711 0.0000 0.0000 1.7911 7.3492 4.0819 0.5260 7.1250 -0.0000 -0.0000 24.9805 -25.5954 12.9450
0.0689 18.1910 0.8761 -1.8135 8.4226 6.0264 0.0000 0.0000 0.0000 -15.6380 -21.6507 -3.6968 1.0425 6.4936 18.2234 -0.6935 15.1160 -9.9939 1.8397 -8.5239 -24.3171 0.0000 0.0000 0.0000 23.0099 15.7360 -2.4818 -0.5978 -4.9497 13.7650 -0.1344 -21.5534 -31.3175 -1.9689 -8.8009 25.1744 0.2184 1.7926 -4.1501 -0.3417 2.3874 -0.1034 -0.3291 1.1950 2.2421 -0.1814 0.1126 -2.6199 -3.9486 1.2423 25.5261 -1.1915 0.2537 8.3523 0.0000 -0.0000 0.0000 -80.6569 15.0167 44.1316 49.7316 -52.8867 -25.9600 -0.0000 0.0000 -4.2966 2.0692 24.3303 0.8528 -7.1250 0.0000 -0.0000 -27.6704 52.1162 -5.1738 0.0000 -0.0000 0.0000 85.4325 -8.2741 44.2038 -18.1472 28.3452 -4.6189 0.0000 0.0000 1.6784 7.4497 4.1303 0.5396 7.1250 -0.0000 -0.0000 25.0390 -25.5476 13.0134
0.0666 18.1908 0.8748 -1.8039 8.4323 6.0326 0.0000 0.0000 0.0000 -15.6353 -21.6654 -3.7395 1.0475 6.5084 18.2669 -0.6928 15.1159 -10.0225 1.8487 -8.5435 -24.3775 0.0000 0.0000 0.0000 23.0027 15.7254 -2.4807 -0.5956 -4.9407 13.7395 -0.1566 -21.4716 -31.3552 -2.0289 -8.9260 25.5642 0.1572 1.8089 -4.1176 -0.4117 2.4136 -0.1168 -0.3663 1.2078 2.2108 -0.0401 0.0902 -2.6327 -3.9285 1.1908 25.5346 -1.2131 0.2439 8.3563 0.0000 0.0000 0.0000 -80.5808 14.9671 44.1571 49.5975 -52.8319 -25.8531 -0.0000 0.0000 -4.2650 2.0406 24.2877 0.8396 -7.1250 0.0000 -0.0000 -27.6708 52.0737 -5.1437 0.0000 0.0000 0.0000 85.5201 -8.3103 44.1643 -18.2350 28.4570 -4.6607 0.0000 0.0000 1.7469 7.5745 4.1304 0.5487 7.1250 -0.0000 -0.0000 25.1240 -25.5430 13.0703
0.0650 18.1913 0.8746 -1.7660 8.4193 6.0693 0.0000 0.0000 0.0000 -15.6581 -21.6547 -3.8206 1.0533 6.5258 18.3178 -0.6932 15.1247 -10.0452 1.8444 -8.5341 -24.3484 0.0000 0.0000 0.0000 22.9503 15.7263 -2.5149 -0.5928 -4.9294 13.7073 -0.1040 -21.6185 -31.2036 -1.9836 -8.8319 25.2710 0.0658 1.8311 -4.1093 -0.4926 2.4493 -0.1491 -0.3970 1.2250 2.1730 0.0875 0.0748 -2.6471 -3.8603 1.1414 25.5873 -1.2164 0.2380 8.3755 -0.0000 0.0000 0.0000 -80.5133 14.9297 44.1581 49.4692 -52.7791 -25.7508 -0.0000 0.0000 -4.1680 2.0602 24.3658 0.8502 -7.1250 0.0000 -0.0000 -27.7005 52.1460 -5.2015 -0.0000 0.0000 0.0000 85.6089 -8.3379 44.1255 -18.3059 28.5471 -4.6945 0.0000 0.0000 1.8391 7.7978 4.0748 0.5575 7.1250 -0.0000 -0.0000 25.2881 -25.5854 13.1462
0.0638 18.1906 0.8756 -1.8502 8.4436 6.0583 0.0000 0.0000 0.0000 -15.5562 -21.6642 -3.8569 1.0602 6.5466 18.3790 -0.6922 15.1246 -10.0834 1.8472 -8.5402 -24.3674 0.0000 0.0000 0.0000 23.0428 15.6969 -2.5032 -0.5895 -4.9158 13.6685 -0.1168 -21.5695 -31.2230 -2.0000 -8.8660 25.3770 0.0816 1.8521 -4.0950 -0.5229 2.4771 -0.1587 -0.4360 1.2392 2.1574 0.1461 0.0465 -2.7337 -3.7485 1.0737 25.6760 -1.1950 0.2199 8.4197 -0.0000 -0.0000 0.0000 -80.4675 14.8782 44.2027 49.3736 -52.7397 -25.6747 -0.0000 0.0000 -4.0305 2.1586 24.3261 0.8896 -7.1250 0.0000 -0.0000 -27.5850 52.1276 -5.1638 -0.0000 -0.0000 0.0000 85.6682 -8.3388 44.0928 -18.3844 28.6465 -4.7321 0.0000 0.0000 1.8682 7.9733 4.0473 0.5664 7.1250 -0.0000 -0.0000 25.4135 -25.6040 13.2134
0.0630 18.1906 0.8768 -1.9325 8.4674 6.0371 0.0000 0.0000 0.0000 -15.4662 -21.6898 -3.8768 1.0693 6.5738 18.4586 -0.6882 15.1003 -10.1306 1.8388 -8.5219 -24.3109 0.0000 0.0000 0.0000 23.1402 15.6054 -2.4891 -0.5851 -4.8975 13.6164 -0.0744 -21.6827 -31.0934 -1.9411 -8.7424 24.9927 0.1093 1.8793 -4.0564 -0.5387 2.5124 -0.1713 -0.4672 1.2572 2.1251 0.1293 0.0127 -2.7743 -3.6348 1.0040 25.7179 -1.1596 0.1952 8.4394 0.0000 0.0000 0.0000 -80.4741 14.8162 44.2716 49.2304 -52.6804 -25.5608 -0.0000 0.0000 -3.9013 2.1615 24.3168 0.8904 -7.1250 0.0000 -0.0000 -27.5767 52.1198 -5.1565 0.0000 0.0000 0.0000 85.6849 -8.3483 44.1015 -18.4382 28.7146 -4.7579 0.0000 0.0000 1.8713 8.0356 4.0323 0.5688 7.1250 -0.0000 -0.0000 25.4591 -25.6152 13.2349
0.0627 18.1896 0.8756 -1.9764 8.5314 6.0418 0.0000 0.0000 0.0000 -15.4027 -21.7543 -3.9564 1.0821 6.6117 18.5701 -0.6827 15.0583 -10.1612 1.8165 -8.4730 -24.1601 0.0000 0.0000 0.0000 23.1874 15.5297 -2.4779 -0.5779 -4.8682 13.5329 -0.0792 -21.6604 -31.0956 -1.9467 -8.7541 25.0291 0.1181 1.8556 -4.0129 -0.5660 2.4807 -0.1936 -0.5040 1.2416 2.0791 0.1044 0.0114 -2.7442 -3.5302 0.9785 25.6841 -1.1218 0.1909 8.4212 0.0000 -0.0000 0.0000 -80.5059 14.7626 44.2160 49.0371 -52.5997 -25.4072 -0.0000 0.0000 -3.7255 2.1641 24.2317 0.8885 -7.1250 0.0000 -0.0000 -27.5225 52.0450 -5.0922 0.0000 -0.0000 0.0000 85.6850 -8.3389 44.2878 -18.4709 28.7559 -4.7736 0.0000 0.0000 1.8005 8.0622 4.0537 0.5737 7.1250 -0.0000 -0.0000 25.4725 -25.5947 13.2573
